<?xml version="1.0" encoding="UTF-8" standalone="no"?>
<!-- Created with Inkscape (http://www.inkscape.org/) -->

<svg
   width="100.16093mm"
   height="99.28878mm"
   viewBox="0 0 100.16092 99.28878"
   version="1.1"
   id="svg1"
   xmlns="http://www.w3.org/2000/svg"
   xmlns:svg="http://www.w3.org/2000/svg">
  <defs
     id="defs1">
    <clipPath
       clipPathUnits="userSpaceOnUse"
       id="clipPath3">
      <path
         id="path3"
         style="display:none;fill:#43ffff;fill-opacity:1;stroke:#ffffff;stroke-width:12;stroke-linecap:round;stroke-linejoin:round;stroke-dasharray:none;stroke-opacity:1"
         d="m 2524.4073,406.68335 c -11.08,0 -20.0004,8.91982 -20.0004,19.99982 v 100.0001 c 0,11.07998 8.9204,19.99981 20.0004,19.9998 l 16.8894,10e-6 0.1385,30.71906 22.1878,-17.70487 16.3096,-13.0142 134.4744,10e-6 c 11.08,-10e-6 20.0004,-8.91983 20.0004,-19.99981 V 426.68316 c 0,-11.07998 -8.9204,-19.99981 -20.0004,-19.9998 z" />
      <path
         id="lpe_path-effect3"
         style="fill:#43ffff;fill-opacity:1;stroke:#ffffff;stroke-width:12;stroke-linecap:round;stroke-linejoin:round;stroke-dasharray:none;stroke-opacity:1"
         class="powerclip"
         d="m 2548.97,413.08591 h 211.9997 V 607.83184 H 2548.97 Z m -24.5627,-6.40256 c -11.08,0 -20.0004,8.91982 -20.0004,19.99982 v 100.0001 c 0,11.07998 8.9204,19.99981 20.0004,19.9998 l 16.8894,10e-6 0.1385,30.71906 22.1878,-17.70487 16.3096,-13.0142 134.4744,10e-6 c 11.08,-10e-6 20.0004,-8.91983 20.0004,-19.99981 V 426.68316 c 0,-11.07998 -8.9204,-19.99981 -20.0004,-19.9998 z" />
    </clipPath>
  </defs>
  <g
     id="layer1"
     transform="translate(-2455.5098,-350.76135)">
    <g
       id="g4"
       transform="matrix(0.34309012,0,0,0.34309012,1603.7261,222.22218)">
      <rect
         style="fill:#ffffff;fill-opacity:1;stroke:none;stroke-width:5.78175;stroke-linecap:round;stroke-linejoin:round;stroke-dasharray:none;stroke-opacity:1"
         id="rect21-8-1-9-1-9-4"
         width="22.188135"
         height="52.855602"
         x="2616.7964"
         y="562.79755"
         rx="10.041204"
         ry="5.2447395" />
      <path
         id="rect24-4-8-8-2-9-8"
         style="fill:#ffffff;fill-opacity:1;stroke:none;stroke-width:13.0538;stroke-linecap:round;stroke-linejoin:round;stroke-dasharray:none"
         d="m 453.02567,570.46594 123.1721,0 c 6.21182,0 9.05093,7.18916 6.53814,15.54577 l -16.54699,55.02903 c -1.35269,4.49853 -5.76999,7.95218 -9.96697,7.95218 l -83.22046,0 c -4.19699,0 -8.61428,-3.45365 -9.96697,-7.95218 l -16.54699,-55.02903 c -2.51279,-8.35661 0.32631,-15.54577 6.53814,-15.54577 z"
         transform="matrix(0.6128476,0,0,0.6128476,2313.1237,243.83783)" />
      <path
         id="path17-2-9-8-1-3-3-3-9"
         style="fill:none;fill-opacity:1;stroke:#ffffff;stroke-width:12;stroke-linecap:round;stroke-linejoin:round;stroke-dasharray:none;stroke-opacity:1"
         d="m 2579.9698,424.08591 c -11.08,0 -19.9998,8.91982 -19.9998,19.99982 v 100.00009 c 0,11.07999 8.9198,20.00033 19.9998,20.00033 h 90.2394 l 18.85,15.04146 22.1878,17.70487 0.1478,-32.74633 h 18.5751 c 11.08,10e-6 19.9998,-8.92034 19.9998,-20.00033 V 444.08573 c 0,-11.07999 -8.9198,-19.99982 -19.9998,-19.99982 z"
         clip-path="url(#clipPath3)" />
      <path
         id="path17-2-1-6-3-0-8-5-0"
         style="fill:none;fill-opacity:1;stroke:#ffffff;stroke-width:12;stroke-linecap:round;stroke-linejoin:round;stroke-dasharray:none;stroke-opacity:1"
         d="m 2524.4073,406.68335 c -11.08,0 -20.0004,8.91982 -20.0004,19.99982 v 100.0001 c 0,11.07998 8.9204,19.99981 20.0004,19.9998 l 16.8894,10e-6 0.1385,30.71906 22.1878,-17.70487 16.3096,-13.0142 134.4744,10e-6 c 11.08,-10e-6 20.0004,-8.91983 20.0004,-19.99981 V 426.68316 c 0,-11.07998 -8.9204,-19.99981 -20.0004,-19.9998 z" />
      <g
         id="g51-7-7-7-0-3-5"
         transform="translate(2114.7071,31.966884)"
         style="fill:#ffffff;fill-opacity:1;stroke:none">
        <rect
           style="fill:#ffffff;fill-opacity:1;stroke:none;stroke-width:8;stroke-linecap:round;stroke-linejoin:round;stroke-dasharray:none;stroke-opacity:1"
           id="rect23-3-0-7-0-3-1-2"
           width="190"
           height="19.639254"
           x="409.70001"
           y="414.84012"
           rx="7.2188139"
           ry="7.2188139" />
        <rect
           style="fill:#ffffff;fill-opacity:1;stroke:none;stroke-width:8;stroke-linecap:round;stroke-linejoin:round;stroke-dasharray:none;stroke-opacity:1"
           id="rect23-5-4-6-6-6-9-3-2"
           width="133.8681"
           height="19.639254"
           x="409.70001"
           y="453.897"
           rx="7.2188139"
           ry="7.2188139" />
      </g>
    </g>
  </g>
</svg>
